<svg width="99" height="100" viewBox="0 0 99 100" fill="none" xmlns="http://www.w3.org/2000/svg">
<g filter="url(#filter0_f_38_109)">
<circle cx="49.4516" cy="49.8017" r="21.4516" fill="white"/>
</g>
<path d="M49.4587 41.5416C44.8907 41.5416 41.2061 45.2262 41.2061 49.7943C41.2061 54.3623 44.8907 58.0469 49.4587 58.0469C54.0267 58.0469 57.7113 54.3623 57.7113 49.7943C57.7113 45.2262 54.0267 41.5416 49.4587 41.5416ZM49.4587 55.1596C46.5067 55.1596 44.0934 52.7535 44.0934 49.7943C44.0934 46.8351 46.4995 44.429 49.4587 44.429C52.4179 44.429 54.824 46.8351 54.824 49.7943C54.824 52.7535 52.4107 55.1596 49.4587 55.1596ZM59.9738 41.2041C59.9738 42.2743 59.1119 43.129 58.0489 43.129C56.9787 43.129 56.124 42.2671 56.124 41.2041C56.124 40.1411 56.9859 39.2792 58.0489 39.2792C59.1119 39.2792 59.9738 40.1411 59.9738 41.2041ZM65.4397 43.1577C65.3176 40.5792 64.7286 38.2952 62.8396 36.4134C60.9578 34.5316 58.6738 33.9426 56.0953 33.8133C53.4378 33.6625 45.4724 33.6625 42.8149 33.8133C40.2436 33.9354 37.9596 34.5244 36.0706 36.4062C34.1816 38.288 33.5998 40.572 33.4705 43.1505C33.3197 45.808 33.3197 53.7734 33.4705 56.4309C33.5926 59.0094 34.1816 61.2934 36.0706 63.1752C37.9596 65.057 40.2364 65.646 42.8149 65.7753C45.4724 65.9261 53.4378 65.9261 56.0953 65.7753C58.6738 65.6532 60.9578 65.0642 62.8396 63.1752C64.7214 61.2934 65.3104 59.0094 65.4397 56.4309C65.5905 53.7734 65.5905 45.8152 65.4397 43.1577ZM62.0065 59.2823C61.4462 60.6901 60.3617 61.7746 58.9467 62.3421C56.8279 63.1824 51.8002 62.9885 49.4587 62.9885C47.1172 62.9885 42.0823 63.1752 39.9707 62.3421C38.5629 61.7818 37.4784 60.6973 36.9109 59.2823C36.0706 57.1635 36.2645 52.1358 36.2645 49.7943C36.2645 47.4528 36.0778 42.4179 36.9109 40.3063C37.4712 38.8985 38.5557 37.8139 39.9707 37.2465C42.0895 36.4062 47.1172 36.6001 49.4587 36.6001C51.8002 36.6001 56.8351 36.4134 58.9467 37.2465C60.3545 37.8068 61.439 38.8913 62.0065 40.3063C62.8468 42.4251 62.6529 47.4528 62.6529 49.7943C62.6529 52.1358 62.8468 57.1707 62.0065 59.2823Z" fill="#040020"/>
<defs>
<filter id="filter0_f_38_109" x="0.1" y="0.450098" width="98.7033" height="98.7033" filterUnits="userSpaceOnUse" color-interpolation-filters="sRGB">
<feFlood flood-opacity="0" result="BackgroundImageFix"/>
<feBlend mode="normal" in="SourceGraphic" in2="BackgroundImageFix" result="shape"/>
<feGaussianBlur stdDeviation="13.95" result="effect1_foregroundBlur_38_109"/>
</filter>
</defs>
</svg>
