<svg width="100" height="100" viewBox="0 0 100 100" fill="none" xmlns="http://www.w3.org/2000/svg">
<g filter="url(#filter0_f_38_113)">
<circle cx="50" cy="49.8017" r="21.4516" fill="white"/>
</g>
<path d="M61.2691 38.3887C58.2597 35.372 54.2519 33.7129 49.9927 33.7129C41.2013 33.7129 34.0476 40.8666 34.0476 49.658C34.0476 52.4663 34.7802 55.21 36.1736 57.6305L33.9111 65.8903L42.3649 63.6709C44.692 64.9422 47.3136 65.6102 49.9855 65.6102H49.9927C58.7768 65.6102 66.0886 58.4565 66.0886 49.6651C66.0886 45.4059 64.2786 41.4053 61.2691 38.3887ZM49.9927 62.924C47.6081 62.924 45.2738 62.2847 43.2411 61.0781L42.7599 60.7908L37.7466 62.1052L39.0825 57.2139L38.7665 56.7111C37.4377 54.5995 36.741 52.1646 36.741 49.658C36.741 42.3534 42.6881 36.4063 49.9998 36.4063C53.5408 36.4063 56.8663 37.7853 59.3658 40.292C61.8653 42.7987 63.4023 46.1242 63.3951 49.6651C63.3951 56.9769 57.2972 62.924 49.9927 62.924ZM57.2613 52.9978C56.8663 52.7967 54.9055 51.8342 54.5392 51.705C54.1729 51.5685 53.9071 51.5038 53.6414 51.9061C53.3756 52.3083 52.6143 53.1989 52.3772 53.4718C52.1474 53.7376 51.9104 53.7735 51.5153 53.5724C49.1739 52.4017 47.6368 51.4823 46.0926 48.832C45.6832 48.1281 46.502 48.1784 47.2633 46.6557C47.3926 46.3899 47.328 46.1601 47.2274 45.959C47.1269 45.7579 46.3296 43.7971 45.9992 42.9998C45.676 42.2241 45.3456 42.3318 45.1014 42.3175C44.8716 42.3031 44.6058 42.3031 44.3401 42.3031C44.0743 42.3031 43.6434 42.4037 43.2771 42.7987C42.9108 43.2009 41.8837 44.1634 41.8837 46.1242C41.8837 48.085 43.313 49.9812 43.5069 50.2469C43.708 50.5127 46.3152 54.5348 50.3159 56.2658C52.8441 57.3575 53.8353 57.4509 55.0994 57.2642C55.8679 57.1493 57.4552 56.3017 57.7856 55.368C58.116 54.4343 58.116 53.637 58.0155 53.4718C57.9221 53.2923 57.6563 53.1917 57.2613 52.9978Z" fill="#040020"/>
<defs>
<filter id="filter0_f_38_113" x="0.64834" y="0.450098" width="98.7033" height="98.7033" filterUnits="userSpaceOnUse" color-interpolation-filters="sRGB">
<feFlood flood-opacity="0" result="BackgroundImageFix"/>
<feBlend mode="normal" in="SourceGraphic" in2="BackgroundImageFix" result="shape"/>
<feGaussianBlur stdDeviation="13.95" result="effect1_foregroundBlur_38_113"/>
</filter>
</defs>
</svg>
