<svg width="38" height="38" viewBox="0 0 38 38" fill="none" xmlns="http://www.w3.org/2000/svg">
<path d="M30.2691 7.38867C27.2597 4.37204 23.2519 2.71289 18.9927 2.71289C10.2013 2.71289 3.0476 9.86662 3.0476 18.658C3.0476 21.4663 3.78021 24.21 5.17361 26.6305L2.91113 34.8903L11.3649 32.6709C13.692 33.9422 16.3136 34.6102 18.9855 34.6102H18.9927C27.7768 34.6102 35.0886 27.4565 35.0886 18.6651C35.0886 14.4059 33.2786 10.4053 30.2691 7.38867ZM18.9927 31.924C16.6081 31.924 14.2738 31.2847 12.2411 30.0781L11.7599 29.7908L6.74657 31.1052L8.0825 26.2139L7.76648 25.7111C6.43772 23.5995 5.74102 21.1646 5.74102 18.658C5.74102 11.3534 11.6881 5.40631 18.9998 5.40631C22.5408 5.40631 25.8663 6.78535 28.3658 9.29202C30.8653 11.7987 32.4023 15.1242 32.3951 18.6651C32.3951 25.9769 26.2972 31.924 18.9927 31.924ZM26.2613 21.9978C25.8663 21.7967 23.9055 20.8342 23.5392 20.705C23.1729 20.5685 22.9071 20.5038 22.6414 20.9061C22.3756 21.3083 21.6143 22.1989 21.3772 22.4718C21.1474 22.7376 20.9104 22.7735 20.5153 22.5724C18.1739 21.4017 16.6368 20.4823 15.0926 17.832C14.6832 17.1281 15.502 17.1784 16.2633 15.6557C16.3926 15.3899 16.328 15.1601 16.2274 14.959C16.1269 14.7579 15.3296 12.7971 14.9992 11.9998C14.676 11.2241 14.3456 11.3318 14.1014 11.3175C13.8716 11.3031 13.6058 11.3031 13.3401 11.3031C13.0743 11.3031 12.6434 11.4037 12.2771 11.7987C11.9108 12.2009 10.8837 13.1634 10.8837 15.1242C10.8837 17.085 12.313 18.9812 12.5069 19.2469C12.708 19.5127 15.3152 23.5348 19.3159 25.2658C21.8441 26.3575 22.8353 26.4509 24.0994 26.2642C24.8679 26.1493 26.4552 25.3017 26.7856 24.368C27.116 23.4343 27.116 22.637 27.0155 22.4718C26.9221 22.2923 26.6563 22.1917 26.2613 21.9978Z" fill="#040020"/>
</svg>
