<svg width="103" height="35" viewBox="0 0 103 35" fill="none" xmlns="http://www.w3.org/2000/svg">
<path d="M4.2 9.524V16.832H11.62V18.456H4.2V25.876H12.46V27.5H2.24V7.9H12.46V9.524H4.2ZM23.378 17.728L29.314 27.5H27.13L22.146 19.324L17.414 27.5H15.23L21.138 17.644L15.23 7.928H17.414L22.37 16.076L27.158 7.928H29.342L23.378 17.728ZM45.2169 13.556C45.2169 15.236 44.6663 16.5893 43.5649 17.616C42.4636 18.6427 40.8116 19.156 38.6089 19.156H34.6609V27.5H32.7009V7.928H38.6089C40.7929 7.928 42.4356 8.44133 43.5369 9.468C44.6569 10.4947 45.2169 11.8573 45.2169 13.556ZM38.6089 17.476C41.6703 17.476 43.2009 16.1693 43.2009 13.556C43.2009 12.2493 42.8369 11.26 42.1089 10.588C41.3809 9.916 40.2143 9.58 38.6089 9.58H34.6609V17.476H38.6089ZM50.4656 9.524V16.832H57.8856V18.456H50.4656V25.876H58.7256V27.5H48.5056V7.9H58.7256V9.524H50.4656ZM73.0037 27.5L68.1597 19.324H64.5477V27.5H62.5877V7.928H68.4677C70.6517 7.928 72.3037 8.45067 73.4237 9.496C74.5623 10.5413 75.1317 11.9133 75.1317 13.612C75.1317 15.0307 74.721 16.244 73.8997 17.252C73.097 18.2413 71.9023 18.8853 70.3157 19.184L75.3557 27.5H73.0037ZM64.5477 17.728H68.4957C70.0263 17.728 71.1743 17.3547 71.9397 16.608C72.7237 15.8613 73.1157 14.8627 73.1157 13.612C73.1157 12.324 72.7423 11.3347 71.9957 10.644C71.249 9.93467 70.073 9.58 68.4677 9.58H64.5477V17.728ZM80.9813 7.928V27.5H79.0213V7.928H80.9813ZM87.3797 9.524V16.832H94.7997V18.456H87.3797V25.876H95.6397V27.5H85.4197V7.9H95.6397V9.524H87.3797ZM90.1237 4.204L86.3717 6.556V4.96L90.1237 2.664L93.8757 4.96V6.556L90.1237 4.204ZM114.258 27.5H112.298L101.462 11.036V27.5H99.5017V7.928H101.462L112.298 24.364V7.928H114.258V27.5ZM117.801 17.7C117.801 15.7773 118.221 14.06 119.061 12.548C119.901 11.0173 121.049 9.832 122.505 8.992C123.961 8.13333 125.585 7.704 127.377 7.704C129.561 7.704 131.428 8.22667 132.977 9.272C134.545 10.2987 135.684 11.7547 136.393 13.64H134.097C133.537 12.3147 132.678 11.2787 131.521 10.532C130.382 9.78533 129.001 9.412 127.377 9.412C125.94 9.412 124.642 9.748 123.485 10.42C122.346 11.092 121.45 12.0627 120.797 13.332C120.144 14.5827 119.817 16.0387 119.817 17.7C119.817 19.3613 120.144 20.8173 120.797 22.068C121.45 23.3187 122.346 24.28 123.485 24.952C124.642 25.624 125.94 25.96 127.377 25.96C129.001 25.96 130.382 25.596 131.521 24.868C132.678 24.1213 133.537 23.0947 134.097 21.788H136.393C135.684 23.6547 134.545 25.1013 132.977 26.128C131.409 27.1547 129.542 27.668 127.377 27.668C125.585 27.668 123.961 27.248 122.505 26.408C121.049 25.5493 119.901 24.364 119.061 22.852C118.221 21.34 117.801 19.6227 117.801 17.7ZM142.259 7.928V27.5H140.299V7.928H142.259ZM158.037 22.852H149.133L147.425 27.5H145.353L152.493 8.18H154.705L161.817 27.5H159.745L158.037 22.852ZM157.449 21.228L153.585 10.644L149.721 21.228H157.449Z" fill="white"/>
</svg>
