<svg width="37" height="38" viewBox="0 0 37 38" fill="none" xmlns="http://www.w3.org/2000/svg">
<path d="M18.4587 10.5416C13.8907 10.5416 10.2061 14.2262 10.2061 18.7943C10.2061 23.3623 13.8907 27.0469 18.4587 27.0469C23.0267 27.0469 26.7113 23.3623 26.7113 18.7943C26.7113 14.2262 23.0267 10.5416 18.4587 10.5416ZM18.4587 24.1596C15.5067 24.1596 13.0934 21.7535 13.0934 18.7943C13.0934 15.8351 15.4995 13.429 18.4587 13.429C21.4179 13.429 23.824 15.8351 23.824 18.7943C23.824 21.7535 21.4107 24.1596 18.4587 24.1596ZM28.9738 10.2041C28.9738 11.2743 28.1119 12.129 27.0489 12.129C25.9787 12.129 25.124 11.2671 25.124 10.2041C25.124 9.14107 25.9859 8.27917 27.0489 8.27917C28.1119 8.27917 28.9738 9.14107 28.9738 10.2041ZM34.4397 12.1577C34.3176 9.5792 33.7286 7.29517 31.8396 5.41337C29.9578 3.53156 27.6738 2.9426 25.0953 2.81332C22.4378 2.66249 14.4724 2.66249 11.8149 2.81332C9.24361 2.93542 6.95958 3.52438 5.0706 5.40619C3.18161 7.28799 2.59983 9.57201 2.47055 12.1505C2.31971 14.808 2.31971 22.7734 2.47055 25.4309C2.59265 28.0094 3.18161 30.2934 5.0706 32.1752C6.95958 34.057 9.23642 34.646 11.8149 34.7753C14.4724 34.9261 22.4378 34.9261 25.0953 34.7753C27.6738 34.6532 29.9578 34.0642 31.8396 32.1752C33.7214 30.2934 34.3104 28.0094 34.4397 25.4309C34.5905 22.7734 34.5905 14.8152 34.4397 12.1577ZM31.0065 28.2823C30.4462 29.6901 29.3617 30.7746 27.9467 31.3421C25.8279 32.1824 20.8002 31.9885 18.4587 31.9885C16.1172 31.9885 11.0823 32.1752 8.97067 31.3421C7.56291 30.7818 6.47836 29.6973 5.91094 28.2823C5.0706 26.1635 5.26452 21.1358 5.26452 18.7943C5.26452 16.4528 5.07778 11.4179 5.91094 9.30626C6.47118 7.8985 7.55573 6.81395 8.97067 6.24653C11.0895 5.40619 16.1172 5.60011 18.4587 5.60011C20.8002 5.60011 25.8351 5.41337 27.9467 6.24653C29.3545 6.80677 30.439 7.89132 31.0065 9.30626C31.8468 11.4251 31.6529 16.4528 31.6529 18.7943C31.6529 21.1358 31.8468 26.1707 31.0065 28.2823Z" fill="#040020"/>
</svg>
